<svg width="207" height="37" viewBox="0 0 207 37" xmlns="http://www.w3.org/2000/svg">
    <g fill="#16A4FA" fill-rule="evenodd">
        <path d="M32.4 0c2 0 3.6 1.7 3.6 3.6v28.9c0 2-1.7 3.6-3.6 3.6H3.6c-2 0-3.6-1.7-3.6-3.6V3.6C0 1.5 1.7 0 3.6 0h28.8zM16.7 7.3h-.9c-.5 0-1 .5-.9 1.1.1.4.5.8 1 .8.1 0 .1 0 .1.1v4.5c0 .4 0 .8-.1 1-.1.6-.5 1.1-1.1 1.5h-.3c-.8-.5-1.5-.5-2.2 0h-.1c-.4-.1-.8-.4-1-.9-.3-.5-.4-1-.4-1.7V9.2c0-.3 0-.3.3-.3.5 0 .9-.5.9-1s-.4-.9-.9-.9H9.4c-.3 0-.5.1-.5.5v6.3c0 .5 0 1 .3 1.5.4 1.3 1.1 2.2 2.4 2.7.1 0 .1.1.1.1.1.3.3.5.5.8.1.1.3.1.4.3v.9c0 .3 0 .3-.3.3-.9-.3-1.9-.4-2.8-.3-1.1 0-2.2.4-3.1 1-1.9 1.3-2.3 3.8-1 5.6 1 1.4 2.9 2.2 4.7 1.9 1.8-.4 3.1-1.4 3.7-3.2.3-.6.4-1.4.4-2.2v-.6c.3.1.4.3.5.4.9.6 1.7 1.4 2.6 2 .9.6 1.8 1.4 2.8 1.9 1.4.6 2.9 1 4.5.6 2.2-.4 3.7-1.7 4.6-3.7.4-.9.5-1.8.6-2.8.1-.8.1-1.4 0-2.2h.1c1.3-.6 1.9-1.8 1.7-3.2-.3-1.5-1.7-2.6-3.3-2.3-1.5.3-2.6 1.7-2.3 3.2.1.9.6 1.7 1.4 2.2.3.1.5.3.9.4V21c-.1.8-.3 1.5-.5 2.2-.6 1.5-1.7 2.4-3.2 2.8-1.4.3-2.7 0-4-.6-.8-.4-1.4-.9-2-1.4-.9-.6-1.7-1.4-2.6-2-.5-.4-1.1-.8-1.8-1-.1 0-.1-.1-.1-.1v-1.5h.1c.4-.3.6-.5.8-1 0 0 0-.1.1-.1.9-.3 1.4-.7 1.9-1.3.6-.8.9-1.8.9-2.8V7.7c0-.3-.1-.4-.4-.4h-1.8 1zM9.8 21.7c1 0 1.9.1 2.9.4.1 0 .1 0 .1.1v.8c0 .6 0 1.3-.3 1.9-.5 1.1-1.3 1.9-2.6 2.2-1.1.3-2-.1-2.8-.9-1.1-1.1-1-2.8.1-3.7 1-.5 1.7-.8 2.6-.8zm19.3-6.6c.6 0 1.3.5 1.3 1.3 0 .6-.5 1.3-1.1 1.3-.6 0-1.3-.6-1.3-1.2 0-.9.5-1.4 1.1-1.4z"/>
        <g fill-rule="nonzero">
            <path d="M54.6 13v11.2h-2.2v-4.8h-4.8v4.8h-2.2V13h2.2v4.6h4.8V13zM59.1 14.8v2.8h3.8v1.8h-3.8v3h4.2v1.8h-6.5V13h6.5v1.8zM72.2 22h-4.4l-.8 2.2h-2.4l4-11.2h2.6l4 11.2h-2.4l-.6-2.2zm-.6-1.8L70 15.6l-1.6 4.7h3.2v-.1zM79 22.4h3.7v1.8h-5.9V13H79zM91.7 13v1.8h-3v9.4h-2.2v-9.4h-3V13zM102.6 13v11.2h-2.2v-4.8h-4.8v4.8h-2.2V13h2.2v4.6h4.8V13zM113.7 13l-3.8 7.3v3.9h-2.2v-3.9l-3.8-7.3h2.5l2.4 5.1 2.4-5.1zM121.9 22h-4.4l-.7 2.1h-2.4l4-11.2h2.6l4 11.2h-2.4l-.7-2.1zm-.6-1.8-1.6-4.7-1.6 4.7h3.2zM132 23.9c-.6-.3-1.1-.7-1.5-1.2-.4-.5-.5-1.1-.5-1.7h2.4c0 .5.2.8.5 1.1.3.3.7.4 1.2.4s.9-.1 1.2-.4c.3-.3.4-.6.4-1 0-.3-.1-.6-.3-.8-.2-.2-.5-.4-.8-.5-.3-.1-.7-.3-1.3-.4-.7-.2-1.3-.4-1.8-.6-.5-.2-.8-.5-1.2-.9-.4-.4-.5-1-.5-1.7s.2-1.2.5-1.7.8-.9 1.4-1.1c.6-.3 1.3-.4 2-.4 1.2 0 2.1.3 2.8.8.7.6 1.1 1.3 1.2 2.3h-2.5c0-.4-.2-.7-.5-1-.3-.3-.7-.4-1.2-.4-.4 0-.8.1-1 .3-.3.2-.4.5-.4 1 0 .3.1.5.3.7.2.2.4.4.7.5.3.1.7.3 1.2.4.7.2 1.3.4 1.8.6.5.2.9.5 1.2 1 .3.4.5 1 .5 1.7 0 .6-.2 1.2-.5 1.7s-.8.9-1.4 1.2c-.6.3-1.3.5-2.1.5-.4 0-1.1-.2-1.8-.4zM147.6 13v1.8h-3v9.4h-2.2v-9.4h-3V13zM156.1 22h-4.4l-.7 2.1h-2.4l4-11.2h2.6l4 11.2h-2.4l-.7-2.1zm-.6-1.8-1.6-4.7-1.6 4.7h3.2zM168.3 13v1.8h-3v9.4h-2.2v-9.4h-3V13zM172.2 13v11.2H170V13zM176.7 23.5c-.9-.5-1.6-1.2-2.1-2s-.8-1.9-.8-3 .3-2.1.8-2.9c.5-.9 1.2-1.5 2.1-2 .9-.5 1.8-.7 2.9-.7 1.1 0 2 .2 2.9.7.9.5 1.6 1.2 2.1 2 .5.9.8 1.8.8 2.9 0 1.1-.3 2.1-.8 3-.5.9-1.2 1.5-2.1 2-.9.5-1.8.7-2.9.7-1.1.1-2-.2-2.9-.7zm4.7-1.7c.5-.3.9-.7 1.2-1.3.3-.6.4-1.2.4-2 0-.7-.1-1.4-.4-2-.3-.6-.7-1-1.2-1.3-.5-.3-1.1-.4-1.8-.4s-1.3.1-1.8.4c-.5.3-.9.7-1.2 1.3-.3.6-.4 1.2-.4 2 0 .7.1 1.4.4 2 .3.6.7 1 1.2 1.3.5.3 1.1.5 1.8.5s1.2-.2 1.8-.5zM196.5 24.2h-2.2l-5.1-7.7v7.7H187V13h2.2l5.1 7.7V13h2.2v11.2zM200.5 23.9c-.6-.3-1.1-.7-1.5-1.2-.4-.5-.5-1.1-.6-1.8h2.4c0 .5.2.8.5 1.1.3.3.7.4 1.2.4s.9-.1 1.2-.4c.3-.3.4-.6.4-1 0-.3-.1-.6-.3-.8-.2-.2-.5-.4-.8-.5-.3-.1-.7-.3-1.3-.4-.7-.2-1.3-.4-1.8-.6-.5-.2-.8-.5-1.2-.9-.4-.4-.5-1-.5-1.7s.2-1.2.5-1.7.8-.9 1.4-1.1c.6-.3 1.3-.4 2-.4 1.2 0 2.1.3 2.8.8.7.6 1.1 1.3 1.2 2.3h-2.5c0-.4-.2-.7-.5-1-.3-.3-.7-.4-1.2-.4-.4 0-.8.1-1 .3-.3.2-.4.5-.4 1 0 .3.1.5.3.7.2.2.4.4.7.5.3.1.7.3 1.2.4.7.2 1.3.4 1.8.6.5.2.9.5 1.2 1 .3.4.5 1 .5 1.7 0 .6-.2 1.2-.5 1.7s-.8.9-1.4 1.2c-.6.3-1.3.5-2.1.5-.4.1-1.1-.1-1.7-.3z"/>
        </g>
    </g>
</svg>
