<svg id="XMLID_126_" xmlns="http://www.w3.org/2000/svg" width="1085.845" height="155.661" viewBox="0 0 1085.845 155.661">
  <g id="XMLID_130_">
    <g id="XMLID_162_">
      <g id="XMLID_163_">
        <rect id="XMLID_174_" width="23.8" height="23.8" transform="translate(97.363 106.163) rotate(90.107)" fill="#5db9e8"/>
        <rect id="XMLID_173_" width="23.8" height="23.8" transform="translate(71.432 75.633) rotate(90.107)" fill="#f9a723"/>
        <rect id="XMLID_172_" width="21.7" height="23.8" transform="translate(54.374 28.133) rotate(90.107)" fill="#5db9e8"/>
        <rect id="XMLID_171_" width="19.4" height="21.7" transform="translate(121.253 50.011) rotate(90.107)" fill="#ea2029"/>
        <rect id="XMLID_170_" width="19.4" height="19.4" transform="translate(134.417 90.998) rotate(90.107)" fill="#2f4498"/>
        <rect id="XMLID_169_" width="19.4" height="19.4" transform="translate(132.289 10.974) rotate(90.107)" fill="#5db9e8"/>
        <rect id="XMLID_168_" width="34.7" height="36.8" transform="translate(97.596 0.069) rotate(90.107)" fill="#2f4498"/>
        <rect id="XMLID_167_" width="15.1" height="17.2" transform="translate(30.295 56.373) rotate(90.107)" fill="#73bd44"/>
        <rect id="XMLID_166_" width="15.1" height="17.2" transform="translate(86.475 52.115) rotate(90.107)" fill="#ef6226"/>
        <rect id="XMLID_165_" width="15.1" height="15.1" transform="translate(15.128 21.604) rotate(90.107)" fill="#2f4498"/>
        <rect id="XMLID_164_" width="10.9" height="10.9" transform="translate(39.061 82.262) rotate(90.107)" fill="#2f4498"/>
      </g>
    </g>
    <g id="XMLID_131_" transform="translate(166.645 26.748)">
      <g id="XMLID_124_">
        <g id="XMLID_139_">
          <path id="XMLID_142_" d="M336.2,450.9V370.5h22.9v80.4Z" transform="translate(-336.2 -344.887)" fill="#fff"/>
          <path id="XMLID_141_" d="M508.4,450.9H485.5V402.7c0-10.9,0-24.9.4-35.7-2.8,10.9-7,24.9-10.7,35.6L459,450.9H434.1l-16.5-48.5c-3.5-10.5-7.7-24.5-10.3-35.2.4,10.9.4,24.7.4,35.6V451H384.8V346.5H421l25.9,85.1,25.9-85.1h35.6Z" transform="translate(-336.2 -344.887)" fill="#fff"/>
          <path id="XMLID_140_" d="M614.2,377.3H590.7c-1.4-10.5-7.9-17.2-19.8-17.2-9.1,0-16.1,3.9-16.1,12.4,0,8.8,6.1,13.1,24.3,17.2,25.2,5.3,36.6,15.9,36.6,32.8,0,19.6-19.8,30.8-42.4,30.8-27.3,0-45.4-11-47.5-32.9h23.5c2.5,11.6,12.1,17.3,23.8,17.3,10.5,0,18.7-5.1,18.7-13.1,0-8.8-6-13.8-22.9-17.5-23.5-5.1-38.2-12.6-38.2-31.7,0-19.3,19.1-30.5,41-30.5C599.3,344.4,611.7,358.6,614.2,377.3Z" transform="translate(-336.2 -344.887)" fill="#fff"/>
        </g>
        <g id="XMLID_125_" transform="translate(324.7 20.31)">
          <path id="XMLID_138_" d="M730.1,390.8H711.7c-1.1-8.4-6.1-13.7-15.6-13.7-7.2,0-12.6,3.2-12.6,9.8,0,6.8,4.9,10.3,19.3,13.5,19.8,4.2,28.7,12.4,28.7,25.8,0,15.4-15.6,24.3-33.3,24.3-21.5,0-35.7-8.8-37.3-25.9h18.4c1.9,9.1,9.5,13.7,18.7,13.7,8.2,0,14.7-4,14.7-10.3,0-6.8-4.7-11-18-13.8-18.4-4-30.1-9.8-30.1-25,0-15.1,15.1-24,32.2-24C718.4,365,728.2,376.3,730.1,390.8Z" transform="translate(-660.9 -365.197)" fill="#fff"/>
          <path id="XMLID_137_" d="M793.9,451.2c-7.4,17.2-14.9,22.6-29.1,22.6a65.137,65.137,0,0,1-8.1-.5V461.9a47.842,47.842,0,0,0,5.4.2c6.1,0,10.2-2.1,13.1-8.4l.9-2.1-28.4-66.4H768L785.3,436l17-50.8h19.8Z" transform="translate(-660.9 -365.197)" fill="#fff"/>
          <path id="XMLID_136_" d="M895.3,403.8h-18c-1.2-5.8-4.7-9.1-10.7-9.1-5.4,0-8.2,2.8-8.2,6.8,0,4.7,4.4,7.2,15.8,9.8,14.2,3.3,22.6,8.6,22.6,20.3,0,12.8-12.6,18.9-28.6,18.9-16.8,0-28.7-6.7-30.7-21h18c1.4,6.8,6.7,10.2,13,10.2,5.8,0,10.2-2.3,10.2-6.8,0-4.9-4.6-7.7-16.6-10.3-13-3-21.9-8.1-21.9-19.1,0-12.1,11-19.6,27.5-19.6C884.3,383.8,893.8,392.2,895.3,403.8Z" transform="translate(-660.9 -365.197)" fill="#fff"/>
          <path id="XMLID_135_" d="M942.4,426.2a48.778,48.778,0,0,0,.2,5.6c.5,6.1,3,7.7,13.1,6.8v10.7a95.311,95.311,0,0,1-11.9.9c-13.5,0-18.2-4-19.1-13-.2-2.8-.2-5.6-.2-9.1V396.9H914.3V386h10.2V370.4h18V386H957v10.9H942.6v29.3Z" transform="translate(-660.9 -365.197)" fill="#fff"/>
          <path id="XMLID_132_" d="M1043,421.5H993.6c1.2,13.3,7.7,17.5,16.1,17.5,7.7,0,13.3-3.9,14.5-10.7h18c-3.5,14.7-16.6,22.2-32.9,22.2-19.1,0-33.8-10.9-33.8-33.1,0-19.4,14-33.6,35.2-33.6,21.4,0,32.6,14.7,32.6,32.1C1043.2,417.4,1043.2,419.4,1043,421.5Zm-48.9-10.7h30.7c-1.2-10-6.1-15.4-14.7-15.4S995.5,400.3,994.1,410.8Z" transform="translate(-660.9 -365.197)" fill="#fff"/>
          <path id="XMLID_129_" d="M1172.6,411.1V449h-18V416c0-3.7-.2-7.2-.5-10.3-.9-6.5-4.9-10.2-11.7-10.2-8.1,0-12.6,6.3-12.6,21v32.6h-17.9V416.2c0-3.7-.2-7.2-.5-10.3-.9-6.5-4.9-10.2-11.9-10.2-8.1,0-12.6,6.3-12.6,21v32.6h-18V385.9h18v9.6l5.1-7.7c3.9-2.5,8.6-3.7,14.7-3.7,11.4,0,18.6,5.1,21.4,12.1l6.8-8.4c3.9-2.5,8.6-3.7,14.9-3.7,13.1,0,20.8,7,22.4,15.8A107.159,107.159,0,0,1,1172.6,411.1Z" transform="translate(-660.9 -365.197)" fill="#fff"/>
          <path id="XMLID_128_" d="M1253.9,403.8h-18c-1.2-5.8-4.7-9.1-10.7-9.1-5.4,0-8.2,2.8-8.2,6.8,0,4.7,4.4,7.2,15.8,9.8,14.2,3.3,22.6,8.6,22.6,20.3,0,12.8-12.6,18.9-28.6,18.9-16.8,0-28.7-6.7-30.7-21h18c1.4,6.8,6.7,10.2,13,10.2,5.8,0,10.2-2.3,10.2-6.8,0-4.9-4.6-7.7-16.6-10.3-13-3-21.9-8.1-21.9-19.1,0-12.1,11-19.6,27.5-19.6C1242.9,383.8,1252.3,392.2,1253.9,403.8Z" transform="translate(-660.9 -365.197)" fill="#fff"/>
        </g>
      </g>
    </g>
  </g>
  <rect id="XMLID_127_" width="22.8" height="21" transform="translate(167.145 20.961)" fill="#c05ba2"/>
</svg>
