<svg xmlns="http://www.w3.org/2000/svg" width="860" height="200" viewBox="0 0 860 200">
  <g id="Group_53" data-name="Group 53" transform="translate(1044 -2037)">
    <rect id="Rectangle_26" data-name="Rectangle 26" width="860" height="200" transform="translate(-1044 2037)" fill="none"/>
    <g id="Layer_x0020_1" transform="translate(-1026.347 2080.238)">
      <path id="Path_136" data-name="Path 136" d="M109.292,19.264l-19.4,49.4H73.47L100.283.37h17.99l26.84,68.295H128.69l-9.646-24.554C116.546,37.759,114.633,32.95,109.292,19.264Zm138.29,33.51h37.762a3.124,3.124,0,0,0,1.143-.213,2.831,2.831,0,0,0,.957-.664,3.241,3.241,0,0,0,.425-.478,2.012,2.012,0,0,0,.239-.478,1.6,1.6,0,0,0,.159-.5,4.417,4.417,0,0,0,.053-.638V19.237a2.771,2.771,0,0,0-.877-2.1,6.178,6.178,0,0,0-.478-.425,3.717,3.717,0,0,0-.452-.239,2.025,2.025,0,0,0-.531-.159,4.408,4.408,0,0,0-.638-.053H247.582ZM304.211,49.8a19.462,19.462,0,0,1-.345,3.747,18.378,18.378,0,0,1-1.063,3.508,18.333,18.333,0,0,1-4.119,6.085l-.425.425h-.027a18.863,18.863,0,0,1-2.445,1.966,17.921,17.921,0,0,1-3.215,1.727,18.375,18.375,0,0,1-3.508,1.063,19,19,0,0,1-3.72.345H231.691V.37h53.653a19,19,0,0,1,3.72.345,17.291,17.291,0,0,1,3.508,1.063,17.922,17.922,0,0,1,3.215,1.727,22.7,22.7,0,0,1,2.9,2.392,20.552,20.552,0,0,1,2.392,2.923,16.854,16.854,0,0,1,1.727,3.189,17.819,17.819,0,0,1,1.063,3.508,19,19,0,0,1,.345,3.72V49.8ZM167.568,52.774H205.33a3.234,3.234,0,0,0,1.143-.213,3.466,3.466,0,0,0,.957-.664,5.4,5.4,0,0,0,.4-.478,4.3,4.3,0,0,0,.266-.478c.053-.159.106-.319.159-.5a4.406,4.406,0,0,0,.053-.638V19.237a3.125,3.125,0,0,0-.213-1.143,3.657,3.657,0,0,0-.664-.957,6.156,6.156,0,0,0-.5-.425,2.431,2.431,0,0,0-.452-.239,1.764,1.764,0,0,0-.531-.159,3.731,3.731,0,0,0-.611-.053H167.568V52.774ZM224.2,49.8a21.831,21.831,0,0,1-.345,3.747,18.376,18.376,0,0,1-1.063,3.508,17.325,17.325,0,0,1-1.754,3.215,18.774,18.774,0,0,1-2.392,2.87l-.4.425h-.027a19.1,19.1,0,0,1-2.471,1.966,16.283,16.283,0,0,1-3.215,1.727,17.569,17.569,0,0,1-3.481,1.063,19.386,19.386,0,0,1-3.72.345H151.677V.37H205.33a19.19,19.19,0,0,1,3.72.345,18.376,18.376,0,0,1,3.508,1.063,17.922,17.922,0,0,1,3.215,1.727,20.39,20.39,0,0,1,5.288,5.315,16.851,16.851,0,0,1,1.727,3.189,17.817,17.817,0,0,1,1.063,3.508,21.281,21.281,0,0,1,.345,3.72V49.8Z" transform="translate(121.771 0.613)" fill="#333" fill-rule="evenodd"/>
      <path id="Path_137" data-name="Path 137" d="M188.238,67.232,161.85.027h9.593l22.614,57.612h2.79L219.436.027h9.62L202.641,67.232Zm47.487-16.795a7.168,7.168,0,0,0,7.175,7.2h26.414v-31.2H242.9a7.213,7.213,0,0,0-7.175,7.2V50.437Zm43.183,16.795H242.9a16.74,16.74,0,0,1-16.795-16.795V33.643A16.785,16.785,0,0,1,242.9,16.848h36.008Zm17.911,0h-9.593V33.643A16.785,16.785,0,0,1,304.02,16.848h19.213a16.275,16.275,0,0,1,11.879,4.916,16.087,16.087,0,0,1,4.916,11.879V67.232h-9.593V33.643a7.259,7.259,0,0,0-7.2-7.2H304.02a7.259,7.259,0,0,0-7.2,7.2Zm84.133-50.384v9.593h-24v23.97a6.948,6.948,0,0,0,2.126,5.076,7.034,7.034,0,0,0,5.076,2.152h16.795v9.593l-16.795-.027a16.785,16.785,0,0,1-16.795-16.795V0h9.593V16.848h24Zm14.961,33.589a6.964,6.964,0,0,0,2.126,5.1,6.881,6.881,0,0,0,5.076,2.1h26.414v-31.2H403.114a7.259,7.259,0,0,0-7.2,7.2V50.437Zm43.209,16.795H403.114a16.74,16.74,0,0,1-16.795-16.795V33.643a16.189,16.189,0,0,1,4.916-11.879,16.189,16.189,0,0,1,11.878-4.916h36.008Zm15.944-16.795a7.168,7.168,0,0,0,7.2,7.2h26.414v-31.2H462.268a6.964,6.964,0,0,0-5.1,2.126,6.881,6.881,0,0,0-2.1,5.076V50.437Zm33.616,16.795H462.268a16.74,16.74,0,0,1-16.795-16.795V33.643a16.785,16.785,0,0,1,16.795-16.795h36.008V69.624a16.83,16.83,0,0,1-16.821,16.821H455.066V76.852h26.388a7.258,7.258,0,0,0,7.228-7.228Zm24.554-19.186v2.392a7.168,7.168,0,0,0,7.175,7.2h31.224v9.593H520.411a16.74,16.74,0,0,1-16.795-16.795V33.643a16.785,16.785,0,0,1,16.795-16.795h19.213A16.19,16.19,0,0,1,551.5,21.764a16.112,16.112,0,0,1,4.943,11.879v14.4H513.236Zm33.589-9.593v-4.81a6.881,6.881,0,0,0-2.1-5.076,6.965,6.965,0,0,0-5.1-2.126H520.411a7.213,7.213,0,0,0-7.175,7.2v4.81h33.589Z" transform="translate(268.251 0)" fill="#333"/>
      <path id="Path_138" data-name="Path 138" d="M99.13,33.917V38.3H88.819V58.9H83.5V38.3H73.22V32.96H99.13v.957Zm25.883,14.669v3.348a2.284,2.284,0,0,0,.106.638,1.653,1.653,0,0,0,.372.5,1.387,1.387,0,0,0,.531.372,1.559,1.559,0,0,0,.611.106h18.974V58.9H126.633a6.9,6.9,0,0,1-6.936-6.962V39.922a6.7,6.7,0,0,1,2.02-4.916,6.947,6.947,0,0,1,4.916-2.046h18.974V38.3H126.633a1.559,1.559,0,0,0-.611.106,1.661,1.661,0,0,0-.531.345,2.154,2.154,0,0,0-.372.531,2.285,2.285,0,0,0-.106.638v3.348h17.167v5.315Zm67.072,5.926V58.9H173.138a6.681,6.681,0,0,1-4.916-2.046,6.46,6.46,0,0,1-1.541-2.259,7.274,7.274,0,0,1-.5-2.657V39.922a6.724,6.724,0,0,1,2.046-4.916,6.53,6.53,0,0,1,2.232-1.515,6.909,6.909,0,0,1,2.684-.531h18.947V38.3H173.138a1.608,1.608,0,0,0-.638.106,1.661,1.661,0,0,0-.531.345,1.513,1.513,0,0,0-.345.531,1.606,1.606,0,0,0-.133.638V51.934a1.606,1.606,0,0,0,.133.638,1.558,1.558,0,0,0,.345.5,1.466,1.466,0,0,0,1.169.478h18.947v.957ZM213.61,32.96h4.385V43.271h15.253V32.96h5.341V58.9h-5.341V48.585H217.994V58.9h-5.341V32.96h.957Zm50.862,7.627V58.9h-5.315V32.96h5.235l15.36,18.309V32.96h5.315V58.9h-5.262L264.472,40.587ZM310.95,51.934a1.607,1.607,0,0,0,.106.638,1.653,1.653,0,0,0,.372.5,1.387,1.387,0,0,0,.531.372,1.477,1.477,0,0,0,.611.106h12.011a1.6,1.6,0,0,0,1.169-.478,2.051,2.051,0,0,0,.372-.5,2.284,2.284,0,0,0,.106-.638V39.922a2.286,2.286,0,0,0-.106-.638,1.655,1.655,0,0,0-.372-.5,1.387,1.387,0,0,0-.531-.372,1.608,1.608,0,0,0-.638-.106H312.571a1.477,1.477,0,0,0-.611.106,1.66,1.66,0,0,0-.531.345,2.154,2.154,0,0,0-.372.531,1.607,1.607,0,0,0-.106.638Zm20.595,0a6.763,6.763,0,0,1-.5,2.657A6.46,6.46,0,0,1,329.5,56.85a6.825,6.825,0,0,1-4.916,2.046H312.571a6.9,6.9,0,0,1-6.936-6.962V39.922a6.7,6.7,0,0,1,2.02-4.916,6.9,6.9,0,0,1,2.259-1.515,6.777,6.777,0,0,1,2.657-.531h12.011a6.909,6.909,0,0,1,2.684.531,6.53,6.53,0,0,1,2.232,1.515,6.664,6.664,0,0,1,2.046,4.916V51.934Zm43.05,2.578V58.9H359.048a6.9,6.9,0,0,1-6.936-6.962V32.96h5.315V51.934a2.285,2.285,0,0,0,.106.638,1.653,1.653,0,0,0,.372.5,1.387,1.387,0,0,0,.531.372,1.559,1.559,0,0,0,.611.106h15.546v.957Zm25.883-2.578a1.606,1.606,0,0,0,.133.638,1.557,1.557,0,0,0,.346.5,1.465,1.465,0,0,0,1.169.478h12.011a1.546,1.546,0,0,0,1.143-.478,2.049,2.049,0,0,0,.372-.5,1.608,1.608,0,0,0,.106-.638V39.922a1.608,1.608,0,0,0-.106-.638,1.653,1.653,0,0,0-.372-.5,1.388,1.388,0,0,0-.531-.372,1.559,1.559,0,0,0-.611-.106H402.125a1.609,1.609,0,0,0-.638.106,1.66,1.66,0,0,0-.531.345,1.512,1.512,0,0,0-.346.531,1.606,1.606,0,0,0-.133.638Zm20.595,0a6.776,6.776,0,0,1-2.02,4.916,7.035,7.035,0,0,1-2.259,1.515,6.874,6.874,0,0,1-2.657.531H402.125a6.681,6.681,0,0,1-4.916-2.046,6.46,6.46,0,0,1-1.541-2.259,6.762,6.762,0,0,1-.5-2.657V39.922a6.723,6.723,0,0,1,2.046-4.916,6.53,6.53,0,0,1,2.232-1.515,6.909,6.909,0,0,1,2.684-.531h12.011a6.947,6.947,0,0,1,4.916,2.046,7.037,7.037,0,0,1,1.515,2.259,6.763,6.763,0,0,1,.5,2.657Zm46.5-7.733v7.733a6.948,6.948,0,0,1-2.046,4.916,7.037,7.037,0,0,1-2.259,1.515,6.777,6.777,0,0,1-2.657.531H448.6a6.724,6.724,0,0,1-4.916-2.046,6.386,6.386,0,0,1-1.515-2.259,6.776,6.776,0,0,1-.531-2.657V39.922a6.724,6.724,0,0,1,2.046-4.916,6.531,6.531,0,0,1,2.232-1.515,7.007,7.007,0,0,1,2.684-.531h18.974V38.3H448.6a1.608,1.608,0,0,0-.638.106,1.558,1.558,0,0,0-.5.345,1.615,1.615,0,0,0-.5,1.169V51.934a1.606,1.606,0,0,0,.133.638,1.558,1.558,0,0,0,.346.5,1.466,1.466,0,0,0,1.169.478h12.011a1.758,1.758,0,0,0,1.515-.983,1.608,1.608,0,0,0,.106-.638V48.585h-8.583V43.271h13.925v.93Zm21.5-11.241h4.385V58.9h-5.341V32.96Zm30.268,15.625v3.348a1.607,1.607,0,0,0,.106.638,1.653,1.653,0,0,0,.372.5,1.459,1.459,0,0,0,1.143.478h18.974V58.9H520.963a6.9,6.9,0,0,1-6.936-6.962V39.922a6.7,6.7,0,0,1,2.02-4.916,6.63,6.63,0,0,1,2.259-1.515,6.777,6.777,0,0,1,2.657-.531h18.974V38.3H520.963a1.4,1.4,0,0,0-.611.106,1.661,1.661,0,0,0-.531.345,2.155,2.155,0,0,0-.372.531,1.607,1.607,0,0,0-.106.638v3.348h17.167v5.315H519.342Zm48.1,0a6.7,6.7,0,0,1-4.916-2.02,7.337,7.337,0,0,1-1.515-2.259,6.857,6.857,0,0,1-.5-2.657V39.922a6.7,6.7,0,0,1,2.02-4.916,6.947,6.947,0,0,1,4.916-2.046h18.974V38.3H567.441a1.559,1.559,0,0,0-.611.106,1.663,1.663,0,0,0-.532.345,2.159,2.159,0,0,0-.372.531,2.286,2.286,0,0,0-.106.638V41.65a2.261,2.261,0,0,0,.106.611,1.756,1.756,0,0,0,.372.531,1.311,1.311,0,0,0,.532.345,1.576,1.576,0,0,0,.611.133h12.011a6.9,6.9,0,0,1,2.684.5,7.531,7.531,0,0,1,3.773,3.773,6.9,6.9,0,0,1,.5,2.684v1.7a6.763,6.763,0,0,1-.5,2.657,6.463,6.463,0,0,1-1.541,2.259,6.826,6.826,0,0,1-4.916,2.046H560.5V53.555h18.947a1.6,1.6,0,0,0,1.169-.478,2.049,2.049,0,0,0,.372-.5,2.284,2.284,0,0,0,.106-.638v-1.7a2.281,2.281,0,0,0-.106-.638,1.867,1.867,0,0,0-.9-.9,2.283,2.283,0,0,0-.638-.106H567.441Z" transform="translate(121.357 54.627)" fill="#333"/>
      <g id="_1916042099024" transform="translate(-0.002 0)">
        <rect id="Rectangle_24" data-name="Rectangle 24" width="113.085" height="29.906" rx="2.113" transform="translate(110.928) rotate(90)" fill="#ffb901"/>
        <path id="Path_139" data-name="Path 139" d="M21.156,113.1H43.744a7.273,7.273,0,0,0,5.979-3.88c.053-.133.08-.266.133-.4l9.407-25.139H81.611c3.587,0,7.494-2.578,8.69-5.687l7.175-18.522c1.222-3.136-.771-5.687-4.332-5.687H70.45L83.339,19.293C87.059,9.354,98.22,1.329,108.265.159A7.986,7.986,0,0,0,106.644,0H81.186C70.583,0,57.668,8.5,53.47,19.293L40.1,53.786H16.24c-3.587,0-7.494,2.578-8.716,5.687L.349,77.994c-1.2,3.109.771,5.687,4.358,5.687H28.49L18.738,108.82c-.93,2.392.053,4.278,2.418,4.278Z" transform="translate(0.002 0)" fill="#4385f6" fill-rule="evenodd"/>
        <path id="Path_140" data-name="Path 140" d="M118.949,0H96.361a7.315,7.315,0,0,0-6.006,3.88,2.339,2.339,0,0,1-.133.4L56.766,93.806c-3.72,9.965-14.908,17.964-24.926,19.16a10.187,10.187,0,0,0,1.594.133H58.892c10.6,0,23.544-8.5,27.717-19.293L121.367,4.278C122.3,1.887,121.314,0,118.949,0Z" transform="translate(52.776 0)" fill="#ea4436" fill-rule="evenodd"/>
      </g>
    </g>
  </g>
</svg>
